<!--?xml version="1.0" encoding="iso-8859-1"?-->
<!-- Generator: Adobe Illustrator 18.1.1, SVG Export Plug-In . SVG Version: 6.00 Build 0)  -->
<svg version="1.1" id="_x32_" xmlns="http://www.w3.org/2000/svg" xmlns:xlink="http://www.w3.org/1999/xlink" x="0px" y="0px" viewBox="0 0 512 512" style="width: 720px;" xml:space="preserve">
<style type="text/css">
 .st0{fill:#FAD9E7;}
 .st1{fill:#F19BC0;}
 .st2{fill:#FFFFFF;}
 .st3{fill:#FAD9E7;}
 .st4{fill:#F19BC0;}
 .st5{fill:#231815;}
</style>

<g id="svgID1">
	<path class="st0" d="M407.229,94.591c0,0,25.377-5.076,32.76-5.998c7.383-0.924,36.913-0.462,46.603,0.461
		c9.689,0.923,12.458,7.383,7.382,8.767c-5.076,1.385-55.831,3.23-68.288,5.537c-12.458,2.307-12.458,2.307-12.458,2.307
		L407.229,94.591z" style="opacity: 1;"></path>
	<path class="st1" d="M414.151,95.053c5.536-0.461,21.224-4.153,27.683-4.153c6.461,0,21.687,0.462,31.376,0
		c9.69-0.462,17.072,0,20.763,2.307c3.693,2.307,0,4.614,0,4.614s-5.998,1.846-13.842,0.923c-7.843-0.923-34.144,1.384-42.911,1.384
		c-8.767,0-17.995,1.385-20.763,1.385c-2.769,0-1.846,5.537-1.846,5.537s10.151-2.307,18.457-3.23
		c8.305-0.923,19.84-1.385,25.377-1.385s15.688-0.922,21.225,0c5.537,0.923,14.764,0.462,17.072,0
		c2.307-0.461,6.461-5.536,5.075-8.766c-1.384-3.23-4.614-5.999-10.152-6.921c-5.536-0.923-23.07-2.307-30.453-1.846
		c-7.382,0.461-24.455,1.385-31.838,1.846c-7.382,0.461-8.304,3.691-12.457,3.691C412.767,90.438,414.151,95.053,414.151,95.053z" style="opacity: 1;"></path>
	<path class="st2" d="M302.182,119.969c9.409-2.844,54.139-16.919,60.598-18.764c6.461-1.846,32.606-10.458,39.373-11.38
		c6.768-0.923,15.073,4.923,12.305,11.997c-2.769,7.075-14.458,18.456-22.763,19.994c-8.305,1.537-15.998-5.535-28.3-3.383
		c-12.303,2.152-47.371,18.454-51.063,19.685c-3.69,1.231-18.764,11.074-18.764,11.074s-6.459,5.229-8.921,7.382
		c-2.461,2.154-15.687,19.073-15.687,19.073s-8.305,7.691-9.229,8.306c-0.923,0.615-17.689,28.606-13.997,28.3
		c1.065-0.089,4.863,1.831,6.459,1.384c1.957-0.546,5.66-12.15,7.971-13.062c2.345-0.923,4.746-1.986,6.949-3.087
		c6.151-3.077,23.071-4.306,32.299-0.615c9.229,3.691,16.302,7.996,20.916,7.689c4.615-0.306,14.151-7.689,14.151-7.689
		s29.53-20.302,59.061-12.919c29.53,7.383,44.908,25.84,50.138,31.068c5.231,5.228,0,9.536,0,9.536s-33.528,3.385-39.372,2.769
		c-5.846-0.617-18.149-1.846-18.149-1.846s18.763,5.23,25.531,10.151c6.768,4.92,26.762,28.301,27.993,34.145
		c1.229,5.843-1.54,9.535-11.382,10.765c-9.843,1.231-38.146-3.383-45.833-11.074c-7.692-7.691-34.145-23.685-40.604-25.839
		c-6.461-2.154-14.15,12.611-11.998,17.225c2.154,4.614-23.377,0-23.377,15.688c0,15.688-7.078,33.836-15.074,35.99
		c-7.999,2.154-34.145,4.305-35.067,6.152c-0.923,1.846-6.154,18.456,0,31.375c6.153,12.92,14.765,22.15,20.917,28.301
		c6.152,6.152,44.603,35.99,47.678,45.219c3.078,9.228,21.534,51.063,27.071,54.446c5.537,3.383,31.989,4.92,39.064,11.38
		c7.077,6.46,0.923,6.46,0.923,6.46s-9.228,7.999-15.688,2.461c-8.305,3.998-44.295-1.847-51.371-12.613
		c-7.073-10.765-15.072-25.531-15.072-25.531s-18.456-13.536-21.532-15.996c-3.078-2.46-0.923,8.921-1.845,5.845
		c-0.923-3.077-8.617-12.919-8.617-12.919l-9.535-6.46c0,0,1.847,13.844-0.921,6.768c-2.769-7.076-12.303-12.305-15.995-17.842
		c-3.691-5.537-5.231,7.381-5.231,5.229c0-2.152-2.769-9.841-5.844-11.38c-3.078-1.539-13.842-4.921-17.534-6.46
		c-3.691-1.539-16.305-15.074-16.305-15.074s-17.227,0.614-26.454,7.075c-9.229,6.459-34.451,18.149-51.679,24.301
		c-17.223,6.152-56.598,27.07-63.981,35.375c-7.383,8.306-12.614,19.992-13.536,25.223c-0.922,5.23-0.922,21.535-1.23,23.687
		c-0.305,2.152-1.539,3.383-5.536,3.383c-3.998,0-15.071,0.309-22.148-3.691c-7.075-3.999-8.305-7.997-9.534-9.842
		c-1.233-1.846-4.001-19.996,3.69-27.993c7.691-7.997,31.683-20.301,35.681-24.608c4.002-4.308,19.69-22.456,19.69-22.456
		s18.763-15.996,22.454-19.379c3.691-3.383-1.846-3.383,1.23-6.459c3.078-3.077-9.842,1.847-1.537-1.538
		c8.305-3.385,10.457-4.616,15.995-7.999c5.537-3.383,3.077-4.612,7.076-7.689c3.998-3.076,9.229-11.691,9.229-11.691
		s-0.617-2.152,2.458-4.92c3.078-2.768,7.076-8.614,7.383-9.536c0.31-0.923,4.615-4.304,4.308-8.612
		c-0.307-4.308-0.617-16.611-0.617-16.611s8.615-47.989,20.612-67.983c11.997-19.994,32.912-41.527,32.912-41.527
		s2.462-10.151,4.308-12.612c1.846-2.46,27.068-35.684,39.681-47.68C249.582,146.115,275.727,127.968,302.182,119.969z" style="opacity: 1;"></path>
	<path class="st0" d="M205.286,243.321c1.229,0,4.306,3.383,4.306,5.537c0,2.154,33.222-21.533,36.913-28.608
		c3.691-7.074,0.921-7.076-3.999-5.845c-4.921,1.231-26.145,15.075-29.222,18.15C210.206,235.63,205.286,243.321,205.286,243.321" style="opacity: 1;"></path>
	<path class="st0" d="M190.873,261.935c2.46-0.922,7.689,1.23,5.845,4.307c-1.846,3.076-8.922,7.074-14.766,8.305
		c-5.845,1.231-5.537-3.691-3.384-6.459C180.721,265.319,190.873,261.935,190.873,261.935z" style="opacity: 1;"></path>
	<path class="st1" d="M183.798,261.935c2.46-1.231,3.381-2.152,5.537-1.845c2.151,0.306,3.384,1.231,1.538,1.845
		c-1.846,0.615-9.231,5.536-11.689,8.612c-2.462,3.076,1.229,4.001,4.614,2.462c3.384-1.539,9.229-6.152,10.458-7.382
		c1.231-1.232,4.615,1.229,2.768,3.075c-1.844,1.846-8.612,5.847-12.611,7.076c-3.999,1.23-9.229,1.23-10.151-2.463
		C173.338,269.625,183.798,261.935,183.798,261.935z" style="opacity: 1;"></path>
	<path class="st1" d="M206.823,244.242c1.231-0.614,19.381-18.457,26.148-23.685c6.766-5.228,12.612-5.845,12.303-3.076
		c-0.309,2.768-7.691,10.767-11.997,13.228c-4.306,2.46-14.149,11.381-18.148,13.842c-3.999,2.461-5.845,3.383-5.845,3.383
		s-2.153,6.152,1.846,3.691c3.999-2.461,10.459-9.227,13.536-11.38c3.075-2.154,9.534-8,12.612-9.845
		c3.076-1.846,9.535-6.767,9.535-6.767s5.536-6.151,4.922-8.305c-0.615-2.154-5.229-2.769-8.613-2.154
		c-3.385,0.615-9.229,2.771-12.919,5.845c-3.691,3.075-9.845,7.999-13.842,11.074c-3.999,3.075-6.46,5.537-10.151,7.383
		c-3.693,1.846-3.693,3.997-3.693,3.997L206.823,244.242z" style="opacity: 1;"></path>
	<g>
		<path class="st5" d="M271.64,247.837c-0.534,4.877-0.441,10.847,0.041,16.996c0.474,6.158,1.303,12.513,1.992,18.301
			c1.439,11.586,1.293,16.326,1.109,14.576c-0.182-1.75-1.177-5.146-2.349-13.822c-1.177-8.681-2.025-15.652-2.424-19.743
			c-0.205-2.046-0.198-2.636-0.205-4.25c0.034-1.617-0.12-4.259,0.227-10.431c0.411-6.184,1.613-9.76,2.278-11.31
			c0.69-1.557,0.81-1.193,0.37,0.488C271.767,242.034,271.606,247.845,271.64,247.837z" style="opacity: 1;"></path>
		<path class="st5" d="M282.284,260.823c-1.529-5.272-2.069-9.273-2.249-12.038c-0.173-2.772,0.004-4.324,0.195-4.899
			c0.425-1.143,0.905,1.541,1.366,5.988c0.984,8.961,4.306,17.448,7.114,24.045c2.803,6.635,6.129,13.049,9.465,19.471
			c3.341,6.421,9.95,19.354,5.258,11.594c-4.639-7.783-6.893-10.685-11.874-20.403c-2.47-4.872-5.032-10.731-6.704-15.468
			C283.164,264.378,282.298,260.818,282.284,260.823z" style="opacity: 1;"></path>
		<path class="st5" d="M298.907,250.852c7.7,12.312,18.318,29.823,28.255,43.628c4.951,6.914,8.661,11.573,10.848,14.325
			c2.198,2.742,2.826,3.619,1.963,2.675c-1.677-1.921-5.721-5.219-13.376-15.529c-7.566-10.36-13.07-19.008-16.398-23.975
			c-3.309-4.982-1.669-2.992-11.167-18.172c-4.774-7.57-7.609-12.075-8.826-14.212c-1.218-2.136-0.796-1.912,0.711,0.161
			L298.907,250.852z" style="opacity: 1;"></path>
		<path class="st5" d="M123.095,299.015c-0.3,1.162-0.567,2.354-0.784,3.524c-0.321,1.638-0.73,4.872-0.496,7.946
			c0.18,3.079,1.045,5.883,1.227,6.759c0.21,1.208,0.834,2.628,1.654,3.504c0.812,0.887,1.751,1.213,2.486,0.53
			c0.606-0.562,0.444-1.487,0.064-2.417c-0.385-0.928-0.984-1.898-1.497-2.487c-0.342-0.368-1.494-2.718-1.987-5.587
			c-0.548-2.854-0.397-6.094-0.235-7.666c0.149-1.664,0.475-3.221,0.814-4.245c0.122-0.373,0.517-1.783,1.262-3.778
			c0.74-1.995,1.858-4.569,3.299-7.277c2.848-5.446,7.087-11.328,10.361-15.191c3.214-3.811,5.26-5.786,6.524-7.002
			c1.276-1.205,1.808-1.626,2.318-2.052c1.028-0.849,1.339-2.004,1.036-2.574c-0.298-0.562-1.265-0.526-2.684,1.146
			c-0.679,0.81-1.168,1.408-2.315,2.673c-1.131,1.274-2.952,3.188-5.984,6.897c-3.243,3.944-7.482,9.888-10.371,15.486
			c-1.462,2.784-2.608,5.458-3.373,7.579C123.646,296.908,123.236,298.47,123.095,299.015z" style="opacity: 1;"></path>
		<path class="st5" d="M143.176,219.456c-1.394,0.557-2.792,1.154-4.139,1.77c-1.902,0.85-5.496,2.68-8.634,4.802
			c-3.165,2.082-5.847,4.412-6.737,5.035c-1.223,0.831-2.543,2.122-3.292,3.351c-0.754,1.233-0.939,2.368-0.065,2.87
			c0.722,0.415,1.723-0.197,2.697-1.082c0.968-0.891,1.926-2.062,2.441-2.913c0.328-0.56,2.606-3.042,5.532-5.338
			c2.892-2.333,6.417-4.407,8.18-5.354c1.852-1.016,3.684-1.826,4.972-2.262c0.928-0.333,6.931-2.604,14.551-4.012
			c7.597-1.496,16.693-2.172,23.082-2.367c6.286-0.198,9.872-0.136,12.095-0.111c2.223,0.04,3.081,0.09,3.921,0.13
			c3.396,0.164,5.1-2.675-0.282-2.17c-1.304,0.123-2.257,0.222-4.382,0.31c-2.123,0.101-5.42,0.148-11.411,0.411
			c-6.386,0.27-15.497,0.984-23.235,2.541c-3.867,0.754-7.384,1.683-10.074,2.536C145.703,218.452,143.828,219.198,143.176,219.456z
			" style="opacity: 1;"></path>
		<path class="st5" d="M107.943,275.775c-0.625,1.053-1.239,2.123-1.832,3.197c-0.615,1.096-1.131,2.18-1.7,3.236
			c-1.554,2.986-4.685,8.729-6.887,14.514c-1.105,2.884-1.951,5.788-2.386,8.241c-0.452,2.451-0.474,4.437-0.488,5.368
			c-0.03,1.258,0.132,2.714,0.595,4.113c0.454,1.399,1.218,2.711,2.094,3.657c0.872,0.955,1.815,1.552,2.543,1.775
			c0.736,0.224,1.248,0.099,1.442-0.373c0.315-0.789-0.853-2.082-1.777-3.738c-0.979-1.628-1.653-3.754-2.031-5.229
			c-0.132-0.473-0.364-2.019-0.196-4.232c0.15-2.206,0.73-5.043,1.646-7.947c1.81-5.826,4.824-11.874,6.231-14.855
			c0.764-1.568,1.46-3.116,2.196-4.45c0.728-1.349,1.429-2.536,2.031-3.476c0.867-1.355,6.321-10.414,15.042-19.674
			c4.331-4.632,9.436-9.304,14.773-13.202c5.32-3.918,10.873-7.017,15.686-8.996c4.731-1.961,8.648-2.924,11.776-3.453
			c3.133-0.519,5.485-0.617,7.276-0.622c3.582,0.038,4.948,0.325,6.285,0.521c2.675,0.443,4.804,0.35,5.261-0.187
			c0.222-0.264,0.004-0.64-0.842-1.042c-0.844-0.393-2.328-0.817-4.599-0.98c-2.195-0.122-3.804-0.195-7.355-0.011
			c-1.771,0.117-4.032,0.321-7.036,0.915c-2.996,0.602-6.745,1.608-11.319,3.537c-4.881,2.051-10.488,5.212-15.863,9.192
			c-5.386,3.96-10.541,8.695-14.935,13.421C114.719,264.427,109.088,273.81,107.943,275.775z" style="opacity: 1;"></path>
		<path class="st5" d="M186.66,275.457l1.886-0.834c0.879-0.375,2.544-1.156,4.104-2.032
			c1.566-0.847,3.033-1.899,3.699-2.121c0.893-0.24,1.748-1.101,1.768-2.192c0.01-0.531-0.2-1.083-0.68-1.504
			c-0.476-0.429-1.209-0.697-2.19-0.899c-1.617-0.288-2.443-0.407-2.822-0.342c-0.376,0.073-0.411,0.517-0.256,1.097
			c0.137,0.359-0.448,1.534-1.522,2.718c-1.041,1.188-2.434,2.324-3.112,2.892c-0.711,0.605-1.471,1.056-2.057,1.188
			c-0.384-0.054-3.19,1.777-5.486,0.144c-0.525-0.382-0.916-0.941-1.105-1.608c-0.179-0.66-0.224-1.475-0.008-2.037
			c0.448-1.348,1.609-2.496,2.616-3.339c2.057-1.65,3.491-2.435,4.337-2.972c0.867-0.521,1.247-0.703,1.611-0.894
			c0.754-0.402,0.303-1.842-0.549-2.753c-0.417-0.469-0.903-0.84-1.308-0.988c-0.411-0.141-0.742-0.058-0.995,0.469
			c-0.246,0.512-0.44,0.908-1.085,1.572c-0.641,0.692-1.799,1.53-3.914,3.424c-0.56,0.523-1.172,1.132-1.762,1.887
			c-0.587,0.757-1.168,1.668-1.508,2.792c-0.09,0.303-0.173,0.609-0.204,0.926c-0.024,0.315-0.033,0.642-0.024,0.916
			c0.021,0.577,0.11,1.172,0.294,1.755c0.355,1.168,1.139,2.253,2.124,2.929c0.977,0.692,2.087,1,3.077,1.072
			c1.001,0.076,1.898-0.083,2.64-0.309C185.566,275.969,186.35,275.591,186.66,275.457z" style="opacity: 1;"></path>
		<path class="st5" d="M314.777,46.246c2.549,0.991,7.287,1.548,11.925,2.471c4.642,0.872,9.173,2.038,11.354,2.842
			c1.091,0.396,3.798,1.314,7.225,2.68c3.427,1.362,7.562,3.19,11.604,5.158c8.089,3.94,15.865,8.273,17.684,9.322
			c3.614,2.145,1.847,3.608-1.114,1.853c-1.493-0.854-9.297-5.317-17.539-9.293c-4.12-1.983-8.369-3.803-11.927-5.079
			c-3.553-1.285-6.404-2.04-7.646-2.195c-2.494-0.318-5.377-0.481-8.282-0.845c-2.917-0.366-5.84-0.943-8.68-2.194
			c-2.846-1.24-4.051-2.336-4.488-3.227C314.451,46.86,314.776,46.246,314.777,46.246z" style="opacity: 1;"></path>
		<path class="st5" d="M420.465,9.182c0.708,0.925,1.815,1.935,3.03,3.081c1.22,1.138,2.56,2.405,3.831,3.711
			c2.556,2.598,4.841,5.356,5.801,6.858c0.482,0.748,1.721,2.547,3.175,4.958c1.455,2.412,3.117,5.436,4.61,8.531
			c3.027,6.173,5.254,12.647,5.643,14.215c0.794,3.147-1.447,3.083-2.077,0.598c-0.303-1.247-2.398-7.71-5.485-13.919
			c-1.52-3.111-3.253-6.155-4.839-8.534c-1.579-2.383-2.999-4.104-3.728-4.723c-1.455-1.243-3.248-2.527-4.891-3.94
			c-1.657-1.428-3.129-2.97-4.265-5.047c-1.149-2.072-1.491-3.466-1.395-4.415C419.955,9.612,420.46,9.18,420.465,9.182z" style="opacity: 1;"></path>
		<path class="st5" d="M372.416,0c2.378,1.837,7.225,4.054,11.85,6.613c4.644,2.509,9.079,5.284,11.145,6.868
			c1.037,0.788,3.626,2.669,6.825,5.283c3.205,2.608,7.005,5.964,10.628,9.477c7.274,7.004,13.814,14.595,15.297,16.432
			c2.946,3.697,0.686,4.326-1.706,1.326c-1.209-1.49-7.689-9.19-15.101-16.279c-3.695-3.553-7.616-6.941-10.983-9.513
			c-3.364-2.583-6.152-4.363-7.417-4.971c-2.533-1.224-5.533-2.438-8.516-3.851c-2.99-1.42-5.948-3.041-8.597-5.255
			c-2.658-2.21-3.591-3.674-3.773-4.672C371.876,0.467,372.415-0.002,372.416,0z" style="opacity: 1;"></path>
		<path class="st5" d="M233.202,19.113c3.61-1.321,8.932-2.983,13.777-4.126c4.842-1.172,9.18-1.872,10.697-2.049
			c3.037-0.353,6.03-0.856,9.046-1.271c0.751-0.09,7.068-1.013,16.283-1.406c4.606-0.205,9.931-0.267,15.624-0.155
			c2.843,0.058,5.782,0.155,8.767,0.288c2.965,0.119,6.067,0.303,9.112,0.699c6.11,0.757,12.154,2.192,17.736,3.991
			c5.587,1.798,10.721,3.947,15.15,6.043c8.854,4.213,14.961,8.055,16.619,8.967c3.316,1.844,10.437,6.539,16.528,11.02
			c6.111,4.456,11.297,8.543,11.301,8.536c0.004-0.007-6.909-3.353-8.741-4.663c-1.824-1.328-7.801-5.935-13.612-9.433
			c-2.893-1.739-13.047-8.275-24.249-13.311c-5.587-2.537-11.411-4.682-16.43-6.117c-5.012-1.46-9.193-2.241-11.397-2.653
			c-2.202-0.408-5.637-0.853-9.642-0.973c-4.031-0.132-8.615-0.188-13.079-0.121c-8.927,0.092-17.32,0.864-19.923,1.1
			c-2.606,0.203-7.995,0.831-13.675,1.899c-5.684,1.037-11.628,2.569-15.552,3.697c-3.929,1.123-6.316,2.198-8.442,3.114
			c-2.124,0.928-3.996,1.703-6.863,2.52c-5.702,1.626-11.136,1.02-11.159,1.016c1.693-1.156,3.415-2.274,5.169-3.353
			C226.244,22.373,229.593,20.401,233.202,19.113z" style="opacity: 1;"></path>
		<path style="fill-rule:evenodd;clip-rule:evenodd;fill:#231815;" d="M415.918,84.956c-1.433-8.884-7.788-12.869-8.311-14.617
			c-1.289-4.297,0.861-6.591,5.732-1.146c3.994,4.463,6.021,14.045,7.739,9.745c1.72-4.299,2.579-2.579,5.159,1.72
			c2.58,4.299,10.5,4.975,8.168,0.86c-2.435-4.297-1.822-7.934-0.142-6.591c4.299,3.439,2.723,7.451,7.022,7.451
			c4.297,0,6.715,0.519,3.87-3.87c-3.439-5.301-4.013-8.742-1.435-7.88c2.581,0.857,5.432,7.303,7.022,4.441
			c2.15-3.868-7.307-10.032-5.587-12.18c1.72-2.149,5.731-1.435,10.317,6.16c4.246,7.033,2.581,11.179,4.3,10.75
			c1.72-0.429,0.861-7.308,3.87-3.439c3.009,3.868,5.159,7.739,6.02,4.729c0.859-3.01,4.3-3.439,4.3-3.439l1.72,6.018
			c0,0-28.376,0.86-34.395,2.15c-6.018,1.289-14.619,3.01-17.197,3.439C421.507,89.685,417.37,93.95,415.918,84.956z"></path>
		<path style="fill-rule:evenodd;clip-rule:evenodd;fill:#231815;" d="M397.289,274.127c9.173,5.159,26.942,7.74,34.68,2.866
			c7.739-4.871,7.453-4.299,6.88-6.02c-0.573-1.72-1.147-6.592-6.018-12.036c-4.873-5.447-4.585-5.158-4.873-5.447
			c-0.287-0.285-0.858,1.721-0.573,3.154c0.286,1.432-2.58,3.439-2.58,3.439s-3.725,0.573-2.006,2.292
			c1.72,1.72,2.006,2.866,2.006,2.866s-1.147,1.72-1.147,2.581c0,0.859-1.146,2.579-2.006,2.865c-0.86,0.285,0,1.433,0,1.433
			s0.859,1.719-0.573,2.292c-1.434,0.573-5.158,0.575-6.593,1.148c-1.432,0.571-1.432,0-4.011,0
			C407.892,275.562,397.289,274.127,397.289,274.127z"></path>
		<path class="st5" d="M358.512,231.692l-2.546-1.559c-1.177-0.727-3.476-2.086-5.72-3.237
			c-2.232-1.174-4.465-2.064-5.129-2.434c-0.881-0.525-2.143-0.892-3.189-0.782c-1.056,0.103-1.783,0.669-1.669,1.663
			c0.09,0.822,0.734,1.233,1.503,1.498c0.772,0.255,1.72,0.362,2.39,0.296c0.433-0.061,2.589,0.413,4.907,1.305
			c2.321,0.863,4.776,2.061,5.983,2.647c1.272,0.613,2.438,1.269,3.18,1.795c0.548,0.378,4.151,2.664,8.384,5.641
			c4.239,2.961,9.14,6.563,12.594,9.084c6.796,4.958,7.767,5.645,8.654,6.348c1.841,1.388,4.272-0.429,1.03-1.916
			c-1.56-0.761-2.336-1.027-8.849-5.596c-3.476-2.443-8.378-5.991-12.685-8.958C363.052,234.51,359.311,232.171,358.512,231.692z" style="opacity: 1;"></path>
		<path class="st5" d="M30.606,500.14c0.303-0.209,0.602-0.429,0.891-0.653c0.403-0.315,1.143-1.016,1.659-1.839
			c0.542-0.805,0.87-1.665,1.105-1.903c0.319-0.319,0.463-0.81,0.256-1.188c-0.214-0.383-0.75-0.625-1.751-0.587
			c-1.641,0.089-1.682,0.748-1.279,1.177c0.139,0.141,0.212,0.806,0.036,1.521c-0.155,0.717-0.575,1.457-0.825,1.798
			c-0.25,0.37-0.572,0.66-0.845,0.765c-0.101,0.039-0.433,0.237-0.956,0.457l-0.458,0.189c-0.143,0.067-0.303,0.129-0.47,0.193
			c-0.337,0.126-0.717,0.246-1.12,0.357c-1.614,0.447-3.597,0.699-4.964,0.677c-1.345-0.013-2.065-0.213-2.47-0.361
			c-0.402-0.16-0.525-0.267-0.637-0.364c-0.206-0.18-0.725,0.26-1.162,0.721c-0.207,0.238-0.353,0.503-0.32,0.759
			c0.028,0.254,0.253,0.492,0.664,0.53l1.215,0.081c0.543,0.042,1.348,0.127,2.743,0.067c1.493-0.059,3.546-0.366,5.285-0.885
			c0.434-0.13,0.851-0.27,1.239-0.425c0.193-0.079,0.381-0.162,0.559-0.249l0.438-0.19C30.054,500.504,30.462,500.229,30.606,500.14
			z" style="opacity: 1;"></path>
		<path class="st5" d="M34.878,507.711c-0.418,0.057-0.847,0.092-1.265,0.11c-0.588,0.022-1.727,0.054-2.77-0.025
			c-1.051-0.073-1.967-0.284-2.186-0.505c-0.316-0.289-0.649-0.455-0.826-0.289c-0.082,0.087-0.228,0.227-0.452,0.408
			c-0.221,0.184-0.509,0.391-0.846,0.768c-0.275,0.308-0.424,0.645-0.381,0.962c0.028,0.314,0.259,0.619,0.544,0.81
			c0.553,0.377,1.155,0.346,1.515,0.144c0.253-0.121,1.358-0.202,2.481-0.395c1.132-0.181,2.327-0.429,2.907-0.58
			c0.612-0.161,1.191-0.274,1.596-0.27c0.275,0,2.28-0.155,4.376-1.313c1.051-0.571,2.076-1.449,2.804-2.484
			c0.742-1.024,1.189-2.156,1.474-3.087c0.532-1.849,0.607-2.932,0.721-3.59c0.092-0.662,0.145-0.917,0.196-1.168
			c0.184-1.036-2.649-1.48-2.17,0.02c0.108,0.366,0.198,0.638,0.228,1.233c0.016,0.591,0.03,1.534-0.354,3.119
			c-0.219,0.838-0.583,1.822-1.186,2.698c-0.594,0.884-1.434,1.635-2.339,2.149c-0.902,0.522-1.846,0.836-2.584,1.024
			C35.663,507.635,35.063,507.677,34.878,507.711z" style="opacity: 1;"></path>
		<path class="st5" d="M381.742,499.307c-0.287-0.04-0.579-0.098-0.858-0.173c-0.391-0.105-1.144-0.324-1.81-0.616
			c-0.673-0.285-1.237-0.64-1.334-0.878c-0.141-0.321-0.364-0.518-0.559-0.369c-0.018,0.133-0.213,0.234-0.423,0.418
			c-0.23,0.181-0.48,0.379-0.842,0.739c-0.658,0.599-0.714,1.175-0.278,1.599c0.301,0.344,0.699,0.377,1.007,0.233
			c0.205-0.092,0.98,0.004,1.795,0.056c0.817,0.059,1.687,0.09,2.118,0.07c0.452-0.016,0.867,0.003,1.142,0.097
			c0.199,0.059,1.518,0.302,3.164,0.26c0.82-0.024,1.724-0.127,2.583-0.384c0.854-0.251,1.658-0.685,2.21-1.206
			c0.548-0.508,0.865-1.031,1.062-1.453c0.201-0.427,0.29-0.76,0.367-1.012l0.229-0.902c0.161-0.868-2.682-0.844-2.169-0.018
			c0.111,0.212,0.201,0.382,0.208,0.731c-0.015,0.337-0.047,0.916-0.696,1.626c-0.348,0.373-0.92,0.726-1.614,0.955
			c-0.692,0.234-1.49,0.35-2.237,0.387C383.301,499.544,382.008,499.339,381.742,499.307z" style="opacity: 1;"></path>
		<path class="st5" d="M280.261,157.639c-5.18,2.16-7.771,2.632-8.604,2.195c-0.819-0.411,0.195-1.665,2.465-2.42
			c4.518-1.503,8.859-3.574,12.583-4.566c3.705-0.999,7.497-1.77,11.345-1.972c1.923-0.115,4.819,0.007,6.61,0.306
			c1.796,0.299,2.492,0.649,0.159,0.883c-2.336,0.26-3.947,0.635-5.661,1.025c-1.711,0.395-3.524,0.799-6.256,1.343
			c-2.732,0.54-5.902,1.289-8.377,1.968C282.05,157.076,280.261,157.641,280.261,157.639z" style="opacity: 1;"></path>
		<path class="st5" d="M269.087,167.482c-3.605,2.017-5.514,2.472-6.268,2.073c-0.74-0.377-0.207-1.574,1.441-2.305
			c3.264-1.442,6.308-3.398,9.038-4.359c2.71-0.962,5.499-1.737,8.368-2.027c1.434-0.153,3.608-0.131,4.964,0.079
			c1.36,0.211,1.905,0.523,0.199,0.87c-1.709,0.367-2.867,0.794-4.101,1.221c-1.232,0.43-2.539,0.865-4.518,1.411
			c-1.983,0.548-4.277,1.253-6.06,1.887C270.367,166.961,269.087,167.483,269.087,167.482z" style="opacity: 1;"></path>
		<path class="st5" d="M251.076,183.372c2.157-0.673,4.581-2.374,7.034-4.285c2.466-1.907,5.036-4.039,7.815-5.553
			c2.776-1.526,5.223-1.969,6.687-1.854c1.477,0.113,1.939,0.589,1.497,0.685c-0.448,0.117-0.971,0.8-1.751,1.698
			c-0.791,0.901-1.832,2.015-3.652,3.191c-3.638,2.406-6.185,5.059-7.66,6.692c-0.733,0.831-1.068,0.905-1.883,1.222
			c-0.411,0.159-0.944,0.376-1.732,0.768l-3.362,1.716c-1.535,0.76-2.952,1.098-4.087,1.128c-1.134,0.036-1.966-0.216-2.46-0.536
			c-0.984-0.665-0.733-1.438,0.047-1.746c0.814-0.328,1.756-1.082,2.412-1.791C250.645,183.999,251.074,183.372,251.076,183.372z" style="opacity: 1;"></path>
		<path class="st5" d="M263.845,232.373c-0.887-0.912-2.026-2.437-2.872-4.034c-0.862-1.592-1.491-3.204-1.796-4.25
			c-0.594-2.087-1.134-3.383-1.733-4.65c-0.591-1.276-1.953-3.291-3.165-4.881c-1.24-1.557-0.309-1.763,0.606-1.117
			c0.904,0.634,2.228,2.17,2.647,2.974c0.227,0.393,0.877,1.631,1.443,2.876c0.567,1.242,1.09,2.471,1.233,2.795
			c0.273,0.665,1.893,3.614,2.409,4.501c0.463,0.901,0.924,2.743,2.366,3.118c1.406,0.32,0.948,0.645,0.702,1.638
			C265.446,232.32,264.827,233.364,263.845,232.373z" style="opacity: 1;"></path>
		<path class="st5" d="M258.798,320.664c-0.43,0.724-0.997,1.997-1.517,3.385c-0.528,1.378-1.022,2.83-1.556,3.731
			c-1.069,1.813-1.224,3.187-1.356,4.526c-0.141,1.354,0.436,3.761,0.407,5.778c-0.022,2.017-2.192,1.537-2.912,0.474
			c-0.72-1.053-1.374-3.038-1.315-3.933c0.028-0.444,0.114-1.824,0.258-3.179c0.139-1.355,0.334-2.687,0.393-3.042
			c0.055-0.353,0.041-1.402,0.089-2.509c0.041-1.106,0.161-2.275,0.316-2.812c0.151-0.541,0.726-1.146,1.07-1.835
			c0.344-0.696,0.476-1.467-0.205-2.57c-0.671-1.114-0.625-1.572-0.177-1.622c0.453-0.058,1.311,0.256,2.394,0.587
			C256.845,318.315,259.229,319.948,258.798,320.664z" style="opacity: 1;"></path>
		<path class="st5" d="M111.874,387.552c10.862-4.091,10.911-0.635,6.23,0.501c-4.679,1.169-9.084,3.23-12.78,4.38
			c-3.69,1.154-7.411,2.267-11.238,2.984c-3.833,0.779-11.629,1.222-6.988-0.099c4.612-1.379,6.309-2.438,11.829-4.039
			L111.874,387.552z" style="opacity: 1;"></path>
		<path class="st5" d="M124.701,373.623c2.492-1.94,4.181-2.026,4.765-1.536c0.596,0.494,0.257,1.471-0.893,1.957
			c-2.338,1.002-4.158,2.948-5.919,4.062c-1.756,1.114-3.575,2.228-5.623,2.92c-1.02,0.353-2.654,0.651-3.702,0.598
			c-1.057-0.05-1.489-0.31-0.344-0.821c1.141-0.54,1.851-1.111,2.612-1.676c0.762-0.573,1.569-1.165,2.872-1.927
			C121.059,375.666,124.685,373.601,124.701,373.623z" style="opacity: 1;"></path>
		<path class="st5" d="M137.537,349.698c1.411-2.437,2.333-4.237,3.079-5.465c0.732-1.233,1.288-1.896,1.716-2.078
			c0.841-0.394,1.189,1.293,0.05,3.566c-2.247,4.464-4.817,8.792-7.595,11.697c-2.755,2.89-5.867,5.442-9.333,7.377
			c-1.723,0.984-4.477,2.138-6.278,2.602c-1.807,0.469-2.596,0.422-0.505-0.742c2.075-1.204,3.401-2.249,4.802-3.356l5.045-4.09
			c2.183-1.79,4.565-4.064,6.257-6.016C136.478,351.251,137.534,349.694,137.537,349.698z" style="opacity: 1;"></path>
		<path class="st5" d="M278.051,434.953c-2.598-3.279-3.415-5.074-3.167-5.899c0.227-0.802,1.521-0.484,2.553,1.042
			c2.031,3.025,4.463,5.793,5.836,8.406c1.372,2.59,2.546,5.31,3.199,8.177c0.338,1.433,0.571,3.641,0.497,5.036
			c-0.073,1.398-0.335,1.974-0.85,0.283c-0.534-1.687-1.097-2.805-1.67-3.994c-0.582-1.188-1.179-2.446-1.996-4.357
			c-0.819-1.917-1.861-4.117-2.769-5.806C278.78,436.147,278.047,434.954,278.051,434.953z" style="opacity: 1;"></path>
		<path class="st5" d="M257.984,424.147c-2.477-2.923-3.166-4.635-2.884-5.418c0.264-0.771,1.48-0.512,2.412,0.874
			c1.842,2.748,4.197,5.149,5.559,7.466c1.358,2.3,2.567,4.712,3.311,7.286c0.38,1.287,0.716,3.284,0.73,4.567
			c0.016,1.285-0.204,1.84-0.822,0.35c-0.636-1.489-1.237-2.466-1.854-3.507c-0.623-1.039-1.248-2.145-2.098-3.846
			c-0.846-1.702-1.888-3.666-2.778-5.177C258.68,425.226,257.983,424.149,257.984,424.147z" style="opacity: 1;"></path>
		<path class="st5" d="M236.729,411.797c-2.745-2.579-3.416-4.358-3.127-5.112c0.284-0.751,1.443-0.524,2.367,0.732
			c1.863,2.516,4.465,4.441,6.069,6.494c1.596,2.024,3.081,4.266,3.906,6.797c0.429,1.258,0.725,3.246,0.629,4.491
			c-0.09,1.251-0.365,1.745-0.845,0.288c-0.52-1.449-1.088-2.375-1.698-3.332l-2.221-3.466
			C239.927,415.652,236.717,411.812,236.729,411.797z" style="opacity: 1;"></path>
		<path class="st5" d="M304.563,287.677c-0.193,5.523-1.543,10.516-4.199,14.495c-2.642,3.994-6.556,6.849-11.183,8.626
			c-2.327,0.897-4.792,1.535-7.481,1.997c-2.735,0.49-5.58,0.973-8.575,1.444c-5.989,0.933-12.588,1.854-20.158,2.547
			c-7.574,0.677-13.52,0.744-18.409,0.454c-4.884-0.307-8.735-0.951-12.017-1.993c-1.631-0.53-3.126-1.165-4.431-1.983
			c-1.3-0.814-2.41-1.829-3.047-3.075c-0.326-0.642-0.507-1.247-0.596-2.084c-0.119-0.955-0.275-1.932-0.465-2.942
			c-0.383-2.015-0.898-4.152-1.575-6.488c-1.368-4.668-2.556-7.837-3.524-10.444c-0.984-2.599-1.789-4.618-2.698-6.856l-1.51-3.612
			l-0.22-0.505l-0.111-0.26l-0.061-0.133l-0.093-0.195l-0.538-1.071l-1.229-2.331c-0.897-1.657-1.946-3.542-3.298-5.719
			c-0.678-1.085-1.43-2.246-2.306-3.479c-0.887-1.229-1.87-2.538-3.195-3.889c-0.674-0.673-1.372-1.294-2.227-1.832
			c-0.435-0.265-0.905-0.511-1.476-0.696c-0.56-0.182-1.257-0.295-1.979-0.209l-0.21,0.025l-0.05,0.019l-0.077,0.045l-0.136-0.007
			c-0.074-0.236,0.033-0.361,0.038-0.414l0.027-0.074l0.05-0.276c0.005-0.067-0.04,0.082-0.099,0.281l-0.173,0.057l-0.014-0.04
			l-0.003-0.032l-0.002-0.017l0.016-0.105c0.04-0.292,0.108-0.692,0.224-1.2c0.234-1.013,0.637-2.527,1.539-4.524
			c0.453-0.991,0.948-1.91,1.476-2.722c0.264-0.407,0.535-0.79,0.814-1.137c0.285-0.357,0.607-0.73,0.911-1.068
			c1.239-1.357,2.511-2.395,3.762-3.107c2.505-1.44,4.896-1.542,6.76-1.253c1.874,0.298,3.222,0.902,4.072,1.297
			c0.856,0.411,1.231,0.656,1.21,0.631c-1.94-2.197-4.891-3.991-8.246-4.304c-1.676-0.16-3.441,0.072-5.1,0.644
			c-1.67,0.564-3.23,1.447-4.651,2.482c-0.69,0.681-1.308,1.373-1.917,2.13c-0.614,0.779-1.144,1.589-1.614,2.42
			c-0.938,1.662-1.659,3.388-2.226,5.16c-0.285,0.886-0.528,1.788-0.726,2.704l-0.137,0.692l-0.13,0.764
			c-0.105,0.689-0.174,1.382-0.188,2.052c-0.025,1.35,0.207,2.53,0.845,3.379c0.165,0.213,0.37,0.416,0.629,0.561
			c0.259,0.144,0.543,0.201,0.786,0.201c0.49,0,0.904-0.136,1.351-0.341c0.219-0.103,0.481-0.225,0.806-0.398
			c0.159-0.085,0.326-0.181,0.495-0.283l0.248-0.157l0.153-0.158c0.059-0.122,0.258-0.04,0.516,0.036
			c0.522,0.195,1.163,0.649,1.75,1.165c1.194,1.049,2.301,2.354,3.346,3.696c2.089,2.708,3.972,5.643,5.754,8.626l0.786,1.461
			l0.891,1.714l0.469,1.052l0.534,1.246c1.486,3.496,3.426,8.365,5.192,13.766c0.88,2.701,1.715,5.534,2.39,8.386
			c0.336,1.423,0.634,2.854,0.868,4.268c0.12,0.724,0.207,1.366,0.309,2.146c0.127,0.9,0.402,1.792,0.806,2.598
			c0.803,1.626,2.041,2.862,3.292,3.781c1.26,0.927,2.567,1.582,3.819,2.109c2.513,1.04,4.839,1.577,6.79,1.958
			c15.666,2.966,38.891,0.717,50.313-1.128c1.429-0.231,3.035-0.519,4.781-0.869c1.709-0.342,3.714-0.737,5.78-1.384
			c4.102-1.263,8.667-3.421,12.4-7.061c1.86-1.805,3.466-3.955,4.697-6.307c1.236-2.352,2.094-4.893,2.637-7.463
			c1.085-5.158,0.96-10.38,0.4-15.223c-0.59-4.854-1.646-8.118-2.401-9.973c-0.781-1.851-1.29-2.316-1.422-1.534
			c-0.145,0.789,0.121,2.822,0.545,6.041C304.108,277.701,304.73,282.141,304.563,287.677z" style="opacity: 1;"></path>
		<path class="st5" d="M209.104,251.885c1.209,4.811,2.141,8.846,3.441,13.239c0.647,2.179,1.424,4.508,2.398,6.933
			c0.942,2.383,1.868,5.101,3.267,8.194c1.402,3.092,2.856,5.457,4.375,7.188c1.511,1.737,2.997,2.877,4.406,3.753
			c1.42,0.872,2.785,1.501,4.311,2.027c1.531,0.516,3.23,0.923,5.36,1.169c1.063,0.121,1.968,0.188,2.758,0.227l2.012,0.108
			c1.182,0.067,2.104,0.134,3.131,0.224l3.762,0.357c1.606,0.144,3.671,0.354,6.636,0.473c2.972,0.112,4.528,0,5.243-0.051
			c0.722-0.063,0.61-0.072,0.383-0.084c-0.228-0.013-0.562-0.034-0.296-0.124c0.27-0.112,1.125-0.181,3.363-0.743
			c2.236-0.581,4.226-1.689,5.483-3.159c1.274-1.465,1.698-3.022,1.811-4.113c0.108-1.116-0.018-1.875-0.124-2.358
			c-0.105-0.483-0.199-0.697-0.196-0.699c-0.459,1.458-1.173,2.837-2.161,3.769c-0.987,0.941-2.148,1.371-3.31,1.514
			c-1.005,0.652-2.282,1.117-3.632,1.449c-1.352,0.33-2.787,0.54-4.24,0.688c-2.912,0.29-5.908,0.349-8.907,0.368l-8.991-0.75
			c-2.377-0.213-4.907-0.646-7.068-1.37c-2.174-0.703-3.924-1.72-5.064-2.596c-1.161-0.861-2.263-2.072-3.17-3.543
			c-0.915-1.469-1.638-3.19-2.254-4.951c-1.199-3.522-2.156-7.213-3.098-9.551c-0.854-2.228-2.346-5.556-3.819-9.372
			c-1.477-3.81-2.949-8.089-3.894-12.073c-0.943-3.982-1.934-5.44-2.493-4.693C207.982,244.081,207.902,247.07,209.104,251.885z" style="opacity: 1;"></path>
		<path class="st5" d="M309.579,450.786c1.733,2.37,3.691,5.476,5.508,8.958c1.836,3.478,3.536,7.31,5.208,10.973
			c1.67,3.666,3.371,7.141,5.175,10.039c1.788,2.913,3.677,5.249,5.26,6.978c3.164,3.469,6.578,5.679,9.815,7.312
			c0.813,0.407,1.618,0.775,2.419,1.117c0.259,0.108,0.263,0.115,0.433,0.17l0.555,0.165c0.382,0.107,0.778,0.202,1.179,0.292
			c1.607,0.357,3.244,0.613,4.88,0.833c3.277,0.437,7.884,0.689,12.819,0.541c2.459-0.08,5.017-0.256,7.422-0.645
			c0.599-0.097,1.184-0.209,1.747-0.339l0.82-0.207c0.263-0.07,0.561-0.17,0.612-0.189c0.361-0.143,0.723-0.31,0.937-0.624
			c0.21-0.327,0.132-0.67,0.064-0.921l-0.204-0.712l-0.057-0.184l-0.13-0.263l-0.168-0.444c-0.07-0.258-0.046-0.447,0.062-0.562
			c0.21-0.235,0.778-0.191,1.51,0.13c0.636,0.249,1.605,0.847,2.275,1.983c0.318,0.551,0.559,1.308,0.336,2.051
			c-0.21,0.744-0.777,1.377-1.475,1.889c-0.69,0.512-1.586,0.934-2.47,1.262c-0.846,0.318-1.727,0.568-2.602,0.775
			c-3.517,0.815-6.987,1.002-9.135,0.988c-2.155-0.004-8.802-0.227-15.293-1.294c-1.629-0.273-3.232-0.565-4.824-1.049
			c-0.502-0.157-0.804-0.31-1.168-0.454l-1.03-0.444c-0.675-0.296-1.314-0.598-1.917-0.894c-2.407-1.183-4.163-2.303-4.893-2.783
			c-0.731-0.479-2.167-1.388-3.857-2.713c-1.691-1.317-3.617-3.076-5.367-5.07c-3.544-3.976-6.211-8.806-7.357-11.104
			c-1.162-2.32-2.246-5.578-3.648-8.763c-1.394-3.182-3.194-6.299-5.601-8.201c-2.4-1.887-3.338-2.864-3.619-3.897
			c-0.292-1.019,0.086-2.039,0.162-3.69c0.08-1.648,0.462-3.135,1.362-3.619C306.208,447.697,307.696,448.227,309.579,450.786z" style="opacity: 1;"></path>
		<path class="st5" d="M201.677,385.648c3.585,2.714,10.242,8.384,12.835,11.474c2.607,3.107,4.682,4.762,6.772,6.376
			c2.098,1.622,6.229,3.76,9.511,5.838c3.293,2.049,1.39,3.415-0.714,2.979c-2.089-0.426-5.582-1.92-6.947-2.92
			c-0.69-0.488-2.802-2.035-4.828-3.616c-2.029-1.575-3.98-3.174-4.503-3.598c-1.047-0.843-6.401-4.38-7.933-5.663
			c-1.528-1.28-3.192-4.546-6.366-4.279c-3.154,0.281-2.243-0.836-1.717-3.176C198.311,386.733,199.756,384.177,201.677,385.648z" style="opacity: 1;"></path>
		<path class="st5" d="M183.122,391.315c3.453-0.696,10.35-2.149,13.679-2.143c3.33,0.015,5.447-0.466,7.555-0.957
			c2.106-0.494,5.634-2.073,8.661-2.935c1.504-0.429,2.179-0.098,2.39,0.505c0.206,0.602-0.132,1.482-0.813,2.062
			c-1.352,1.168-4.102,2.622-5.428,2.945c-1.327,0.35-8.237,1.942-9.305,2.163c-1.063,0.243-5.971,2.051-7.573,2.386
			c-1.605,0.339-4.562-0.526-5.993,1.99c-1.436,2.516-1.731,1.094-2.963-0.876C182.1,394.48,181.268,391.69,183.122,391.315z" style="opacity: 1;"></path>
		<path class="st5" d="M55.05,468.857c2.472-4.797,6.706-9.686,11.827-14.116c5.123-4.452,11.118-8.543,17.237-12.213
			c6.121-3.668,12.375-6.914,18.074-9.692c2.85-1.389,5.564-2.658,8.038-3.81l0.915-0.427l0.104-0.043l0.022-0.009l0.108-0.061
			l0.452-0.251c0.601-0.328,1.19-0.641,1.765-0.933c1.149-0.588,2.242-1.103,3.266-1.567c4.095-1.84,7.871-3.305,11.383-4.648
			l9.824-3.694c6.125-2.302,11.509-4.416,16.798-6.702c5.268-2.3,12.436-5.724,19.451-10.453c3.498-2.369,6.934-5.08,9.933-8.138
			c3.004-3.052,5.547-6.454,7.357-10.016c1.808-3.562,2.592-6.204,3.196-7.877c0.577-1.68,0.943-2.414,1.269-2.367
			c0.602,0.059,1.02,3.365-0.141,7.595c-0.572,2.098-1.524,4.587-2.908,7.104c-1.377,2.518-3.184,5.05-5.202,7.339
			c-4.04,4.596-8.854,8.147-11.959,10.108c-1.551,0.991-4.782,2.952-8.971,5.087c-4.18,2.144-9.311,4.456-14.448,6.582
			c-5.139,2.134-10.272,4.117-14.433,5.757c-4.16,1.629-7.345,2.927-8.681,3.484c-1.336,0.557-3.912,1.671-7.07,3.202
			c-1.577,0.766-3.299,1.64-5.068,2.621c-0.882,0.487-1.779,1.004-2.671,1.547l-0.67,0.411l-0.447,0.259l-0.364,0.191l-1.446,0.757
			c-3.872,2.015-7.797,4.075-11.205,5.941c-3.411,1.858-6.305,3.511-8.185,4.582c-3.752,2.134-8.889,4.778-13.788,8.117
			c-4.891,3.308-9.546,7.419-12.027,11.736c-2.447,4.297-3.313,6.266-4.437,7.472c-1.067,1.232-2.304,1.66-3.97,3.279
			c-1.642,1.612-3.024,3.068-3.98,2.552c-0.462-0.259-0.82-1.051-0.788-2.521C53.248,473.585,53.709,471.431,55.05,468.857z" style="opacity: 1;"></path>
		<path class="st5" d="M54.321,484.739c-0.537,0.649-0.997,1.542-1.206,3.023c-0.213,1.465-0.121,3.421,0.114,5.528
			c0.23,2.109,0.57,4.38,0.784,6.604l0.139,1.66l0.101,1.905c0.079,1.779-0.004,3.383-0.045,4.852
			c-1.43,0.631-2.693,1.176-3.859,1.565c-0.639,0.213-1.298,0.408-1.767,0.527l-1.192,0.267c-0.779,0.162-1.522,0.296-2.238,0.414
			c-1.429,0.238-2.749,0.406-3.996,0.541c-2.495,0.26-4.712,0.387-6.94,0.374c-2.224-0.025-5.308-0.018-8.716-0.638
			c-3.376-0.609-7.201-1.911-10.139-4.546c-1.453-1.316-2.149-2.577-2.419-3.415c-0.27-0.853-0.139-1.314,0.137-1.451
			c0.588-0.272,1.782,0.608,3.105,1.564c1.313,0.999,3.27,2.058,5.273,2.707c1.991,0.676,3.98,1.036,5.21,1.315
			c0.616,0.141,1.888,0.407,3.51,0.591c1.622,0.188,3.59,0.289,5.541,0.232c3.918-0.072,7.696-0.876,8.675-1.137
			c0.462-0.114,1.317-0.369,2.361-0.77c0.579-0.223,0.951-0.393,1.348-0.591c0.389-0.202,0.804-0.407,1.145-0.66
			c-0.052-0.559-0.122-1.103-0.207-1.608l-0.333-2.091c-0.249-1.478-0.5-2.774-0.623-3.609c-0.227-1.559-0.213-3.724-0.315-5.987
			c-0.091-2.292-0.281-4.58-0.686-7.099c-0.199-1.274-0.059-2.323,0.2-3.066c0.266-0.75,0.657-1.204,1.085-1.46
			c0.869-0.508,1.932-0.303,3.321-0.067c1.4,0.254,2.475,1.103,2.93,1.989C55.086,483.112,54.972,483.979,54.321,484.739z" style="opacity: 1;"></path>
		<path class="st5" d="M96.653,408.575c-2.631,2.813-6.084,5.995-10.007,9.196c-3.919,3.211-8.296,6.459-12.643,9.664
			c-4.346,3.21-8.659,6.395-12.398,9.52c-1.866,1.56-3.589,3.107-5.103,4.614c-0.757,0.753-1.464,1.496-2.112,2.222
			c-0.325,0.362-0.631,0.723-0.928,1.076c-0.091,0.104-0.431,0.544-0.676,0.865l-0.764,1.009l-2.252,0.773l-1.227,0.452
			c-3.142,1.211-5.981,2.72-8.54,4.239c-2.562,1.528-4.858,3.104-6.967,4.685c-4.211,3.172-7.689,6.348-10.876,9.745
			c-1.59,1.703-3.374,3.821-5.091,6.298c-1.705,2.474-3.369,5.324-4.474,8.392c-1.105,3.053-1.561,6.344-0.724,9.102
			c0.786,2.765,2.888,5.02,5.52,6.716c2.646,1.68,4.805,2.572,6.111,3.273c1.328,0.683,1.877,1.132,1.784,1.442
			c-0.16,0.583-2.944,0.65-6.355-0.548c-1.687-0.605-3.702-1.51-5.629-2.939c-1.92-1.411-3.74-3.434-4.751-5.892
			c-1.043-2.443-1.228-5.151-0.954-7.454c0.269-2.322,0.919-4.288,1.514-5.732c0.584-1.449,1.974-4.342,4.232-7.57
			c2.236-3.241,5.3-6.817,8.608-10.07c3.299-3.265,6.829-6.215,9.809-8.471c2.981-2.261,5.407-3.838,6.435-4.49
			c0.835-0.532,2.295-1.485,4.219-2.604c0.964-0.557,2.04-1.157,3.221-1.754c0.59-0.297,1.207-0.594,1.849-0.885l0.922-0.405
			l0.624-0.26l0.281-0.418l0.37-0.519c0.326-0.439,0.659-0.877,1.004-1.308c0.688-0.861,1.413-1.704,2.155-2.52
			c1.482-1.634,3.042-3.156,4.542-4.542c3.005-2.761,5.772-4.982,7.472-6.299c2.869-2.222,6.954-4.787,10.944-7.691
			c3.985-2.896,7.87-6.204,10.228-9.744c2.344-3.531,3.554-5.068,4.814-5.847c1.242-0.787,2.489-0.793,4.456-1.435
			c1.96-0.645,3.707-0.883,4.32-0.032C100.215,403.249,99.68,405.32,96.653,408.575z" style="opacity: 1;"></path>
		<path class="st5" d="M263.759,352.599c0.538,3.611,2.261,8.14,5.155,12.74c2.867,4.616,6.788,9.293,11.046,13.651
			c4.259,4.37,8.848,8.437,13.098,12.058c2.134,1.831,4.156,3.478,6.07,5.155c1.82,1.578,3.507,2.988,4.992,4.212
			c2.961,2.46,5.834,4.56,8.541,6.743c2.71,2.17,5.133,4.527,7.09,6.931c1.974,2.4,3.58,4.788,5.054,7.124
			c0.736,1.169,1.431,2.328,2.107,3.485l0.503,0.867l0.325,0.564l0.252,0.624l0.72,1.842c1.906,4.903,4.537,11.571,7.625,18.712
			c3.096,7.124,6.631,14.762,10.484,21.25c1.927,3.238,3.339,5.31,4.185,6.653c0.849,1.339,1.134,1.984,0.906,2.222
			c-0.22,0.22-0.956-0.008-1.969-0.706c-1.012-0.692-2.277-1.867-3.523-3.381c-2.515-3.017-5.526-7.754-8.071-12.541
			c-2.562-4.78-4.729-9.568-5.955-12.607c-0.614-1.517-1.853-4.638-3.35-8.552l-2.414-6.352l-1.306-3.411l-0.677-1.723
			c-0.13-0.335-0.161-0.425-0.314-0.677l-0.464-0.8c-2.477-4.266-5.192-8.312-7.824-11.181c-2.612-2.88-5.074-4.669-6.09-5.456
			c-1.995-1.572-8.425-5.606-14.618-10.546c-3.077-2.357-6.298-4.827-9.026-7.065c-2.744-2.238-5.039-4.26-6.489-5.617
			c-2.902-2.71-6.422-6.701-9.848-10.98c-3.45-4.286-6.727-8.842-9.727-12.808c-1.512-1.988-2.431-3.69-2.985-5.09
			c-0.551-1.406-0.74-2.514-0.728-3.453c0.049-1.876,0.814-3.115,1.875-5.191c1.094-2.086,2.58-3.112,3.515-2.683
			c0.48,0.209,0.837,0.765,1.097,1.721C263.291,349.294,263.456,350.66,263.759,352.599z" style="opacity: 1;"></path>
		<path class="st5" d="M196.22,219.612l-6.698,7.397c-2.249,2.486-4.423,4.938-6.195,7.058
			c-0.887,1.056-3.451,4.065-6.593,8.338c-3.148,4.263-6.853,9.794-10.279,15.573c-3.437,5.771-6.606,11.777-8.975,16.802
			c-2.375,5.022-3.973,9.051-4.436,10.832c-0.918,3.564-2.321,7.232-3.996,12.01c-1.656,4.774-3.643,10.675-5.194,18.638
			c-1.123,5.733-3.01,13.075-3.901,19.087c-0.468,3.002-0.707,5.655-0.782,7.556c-0.08,1.9-0.025,3.042-0.033,3.044
			c-0.331,0.146-1.074-1.3-1.683-3.877c-0.612-2.567-1.029-6.246-1.026-10.239c-0.063-8.003,1.552-17.105,2.806-21.326
			c1.22-4.245,3.12-10.125,5.132-15.524c2-5.408,4.083-10.339,5.211-12.876c1.107-2.544,4.838-11.368,9.066-19.759
			c4.159-8.423,8.853-16.382,9.755-18.181c1.763-3.614,6.799-12.029,13.27-19.731c3.239-3.851,6.379-6.041,8.963-7.173
			c2.595-1.135,4.604-1.242,5.977-1.087c1.374,0.162,1.192,1.042,0.761,1.838C196.929,218.814,196.22,219.612,196.22,219.612z" style="opacity: 1;"></path>
		<path class="st5" d="M265.464,243.552c-0.112,0.54-0.187,0.894-0.327,1.251c-0.137,0.348-0.328,0.728-0.495,1.091
			c-0.171,0.373-1.085,2.19-1.676,4.172c-0.623,1.977-0.923,4.081-0.704,4.658c0.441,1.137-0.087,2.429,0.531,4.83
			c0.223,0.853,0.145,1.976,0.082,2.929l-0.13,1.724c-0.331,0.153-1.172-0.642-1.832-1.809c-0.668-1.15-1.125-2.617-1.131-3.331
			c-0.057-1.434,0.082-3.991,0.24-4.874c0.058-0.442,0.166-1.981,0.37-3.487c0.189-1.507,0.474-2.983,0.454-3.329
			c-0.029-0.346,0.033-0.919,0.156-1.6c0.136-0.68,0.268-1.435,0.642-2.39c0.373-0.951,1.177-1.511,1.836-1.597
			c0.675-0.103,1.209,0.164,1.568,0.437c0.353,0.278,0.413,0.631,0.435,0.885C265.497,243.37,265.464,243.552,265.464,243.552z" style="opacity: 1;"></path>
		<path style="fill-rule:evenodd;clip-rule:evenodd;fill:#231815;" d="M422.009,196.316c4.082,3.828-1.792,12.46,1.648,15.041
			c1.177,5.818-1.197,8.843-8.598,15.477c9.185,1.532,30.677,6.484,32.463-4.234c1.277-7.656-14.54-26.027-22.197-27.304
			L422.009,196.316z"></path>
		<path class="st5" d="M232.277,218.617c-1.649,1.083-3.272,2.222-4.84,3.341c-4.498,3.064-16.271,12.862-18.801,13.927
			c-1.717,0.77-3.547,2.02-4.633,3.356c-1.067,1.341-1.495,2.795-0.407,4.482c0.911,1.381,2.825,1.229,4.5,0.357
			c1.687-0.862,3.17-2.366,3.862-3.581c0.995-1.573,12.571-12.748,16.539-16.104c2.052-1.824,4.13-3.378,5.672-4.218
			c0.567-0.276,2.567-1.644,5.691-2.914c0.783-0.301,1.637-0.588,2.542-0.759c0.453-0.087,0.916-0.144,1.379-0.151
			c0.441-0.015,0.963,0.047,1.499,0.102c0.527,0.059,1.062,0.139,1.588,0.251c0.562,0.121,0.902,0.22,1.337,0.395
			c0.408,0.172,0.812,0.396,1.119,0.734c0.314,0.335,0.479,0.803,0.448,1.269c-0.024,0.468-0.193,0.921-0.406,1.341
			c-0.109,0.211-0.228,0.413-0.362,0.614c-0.135,0.207-0.327,0.481-0.508,0.716c-0.74,0.969-1.627,1.9-2.562,2.799
			c-1.872,1.797-3.939,3.477-5.995,5.092c-2.061,1.622-4.12,3.126-6.058,4.733l-2.797,2.08c-0.917,0.696-1.789,1.38-2.607,2.04
			c-3.219,2.604-5.612,4.771-7.549,6.398c-1.928,1.638-3.391,2.77-4.537,3.598c-2.303,1.636-3.278,2.131-4.205,2.653
			c-1.871,1.027-2.601,2.972-2.189,4.182c0.4,1.189,2.104,1.652,4.886-0.764l15.414-13.854c0.781-0.654,1.615-1.329,2.495-2.02
			l2.861-2.196c1.758-1.503,3.847-3.066,5.901-4.717c2.066-1.654,4.169-3.385,6.149-5.306c0.985-0.964,1.944-1.974,2.813-3.115
			c0.219-0.296,0.415-0.566,0.637-0.912c0.244-0.373,0.474-0.777,0.664-1.18c0.381-0.813,0.627-1.671,0.617-2.527
			c0.001-0.854-0.302-1.7-0.834-2.345c-0.522-0.653-1.233-1.124-1.99-1.471c-0.382-0.173-0.776-0.314-1.174-0.434
			c-0.202-0.059-0.398-0.11-0.593-0.157l-0.485-0.108c-0.64-0.13-1.254-0.214-1.853-0.278l-0.887-0.076
			c-0.299-0.023-0.668-0.036-0.983-0.021c-0.65,0.025-1.258,0.112-1.829,0.231c-1.141,0.241-2.139,0.596-3.04,0.966
			c-1.791,0.743-3.195,1.539-4.278,2.172C233.41,217.876,232.664,218.365,232.277,218.617z" style="opacity: 1;"></path>
		<path class="st5" d="M419.022,86.131c5.171-1.797,11.674-2.729,18.598-3.089c3.464-0.193,7.046-0.259,10.635-0.321
			c1.794-0.036,3.59-0.069,5.36-0.133l1.308-0.054l1.237-0.116l2.812-0.211c7.448-0.467,14.834-0.517,21.596-0.027
			c3.381,0.253,6.599,0.646,9.58,1.247c2.979,0.606,5.729,1.403,8.138,2.609c1.2,0.611,2.392,1.339,3.496,2.366
			c1.088,1.015,2.108,2.441,2.51,4.113c0.423,1.664,0.194,3.298-0.231,4.584c-0.433,1.305-1.046,2.362-1.679,3.313
			c-0.162,0.232-0.32,0.466-0.488,0.687c-0.169,0.23-0.299,0.4-0.575,0.748c-0.488,0.6-0.98,1.157-1.48,1.707l-0.371,0.411
			l-0.095,0.103l-0.131,0.019l-0.277,0.015l-1.1,0.058l-1.092,0.043l-0.874,0.025c-1.843,0.036-3.619,0.047-5.347,0.047
			c-6.898-0.014-12.986-0.173-19.057-0.288c-6.07-0.108-14.411-0.148-23.411,0.288c-8.987,0.448-18.68,1.432-27.085,3.731
			c-0.733,0.2-1.424,0.396-2.069,0.591l-0.938,0.284l-1.42,0.468c-0.548-0.029-1.11,0-1.578-0.072l-1.555-0.283l-0.988-0.431
			l-0.677-0.285l-1.186-0.479l-0.886-0.361l-0.275-0.122l-0.031-0.025l-0.004-0.007v-0.004l0.004-0.061l0.018-0.242
			c0.046-0.605,0.057-1.128,0.024-1.51c-0.017-0.372-0.125-0.624-0.157-0.616c-0.004,0.03,0.231-0.062,0.428-0.259
			c0.228-0.199,0.464-0.465,0.722-0.772l0.375-0.472l0.059-0.07l-0.004,0.012l0.07,0.256c0.052,0.173,0.014,0.298-0.119,0.368
			l-0.552,0.101c-0.38,0.46-0.892,0.902-0.984,0.837c0.01-0.022,0.117,0.144,0.144,0.422c0.036,0.22,0.036,0.868,0.042,0.663
			c0.082-0.061,0.327-0.089,0.572-0.097c1.037-0.025,2.47,0.148,4.133,0.609c0.336,0.083,0.669,0.177,0.986,0.302l0.344-0.044
			l0.356-0.143l0.286-0.115c4.239-1.905,10.451-3.645,16.628-4.643c6.16-1.024,12.188-1.438,15.961-1.539
			c1.908-0.054,5.818-0.127,10.694-0.091c4.879,0.026,10.723,0.157,16.507,0.271c5.783,0.115,11.509,0.18,16.157,0.085l3.266-0.092
			l1.252-0.05c0.32-0.033,0.661,0.003,0.921-0.083c0.401-0.454,0.704-0.826,1-1.231c0.347-0.47,0.595-0.865,0.774-1.159
			c0.657-1.114,2.104-3.839-0.036-5.912c-1.036-1.056-2.755-1.899-4.668-2.508c-1.924-0.619-4.066-1.042-6.258-1.348
			c-4.394-0.606-8.99-0.761-13.016-0.779c-4.03-0.01-7.504,0.126-9.758,0.209c-2.252,0.085-4.888,0.128-7.721,0.256l-2.146,0.119
			l-0.651,0.033l-0.57,0.007l-1.15,0.015l-4.671,0.021c-6.255,0.026-12.715,0.39-17.69,2.141c-4.941,1.749-7.116,2.626-8.877,2.783
			c-1.743,0.202-3.004-0.321-5.429-0.31c-2.407,0.018-4.449,0.035-4.723-1.02c-0.122-0.518,0.222-1.334,1.327-2.345
			C414.36,88.272,416.237,87.088,419.022,86.131z" style="opacity: 1;"></path>
		<path class="st5" d="M290.712,143.483c2.089-1.24,4.77-2.65,7.761-3.965c2.989-1.321,6.278-2.559,9.528-3.673
			c3.25-1.119,6.459-2.129,9.328-3.044l4.021-1.285c0.646-0.209,1.289-0.433,1.891-0.583l1.497-0.433
			c3.74-1.145,6.816-2.812,9.636-4.283c2.816-1.497,5.375-2.875,8.017-4.088c2.635-1.221,6.309-2.885,10.479-4.235
			c4.163-1.37,8.796-2.429,13.099-2.981c4.312-0.537,5.97-0.063,6.016,0.553c0.051,0.637-1.481,1.48-3.541,2.075l-7.747,2.158
			c-2.78,0.798-5.42,1.651-7.08,2.132c-1.67,0.451-6.789,2.064-11.504,4.45c-2.368,1.166-4.661,2.464-6.546,3.534
			c-1.877,1.073-3.361,1.896-3.99,2.231c-0.63,0.336-1.829,1.035-3.408,1.835c-0.79,0.4-1.675,0.822-2.629,1.225l-1.428,0.584
			l-1.428,0.62c-3.933,1.676-8.052,3.247-10.033,3.951c-1.986,0.695-4.745,1.281-7.451,2.242c-2.702,0.955-5.366,2.31-7.008,4.351
			c-1.63,2.029-2.501,2.756-3.404,2.863c-0.897,0.105-1.792-0.416-3.244-0.776c-1.456-0.36-2.773-0.991-3.186-1.917
			C287.945,146.111,288.452,144.831,290.712,143.483z" style="opacity: 1;"></path>
		<path class="st5" d="M248.047,205.135c-0.513,1.406-0.921,2.374-1.334,3.039c-0.408,0.659-0.818,1.013-1.199,1.107
			c-0.748,0.213-1.362-0.755-0.819-2.08c1.075-2.56,1.928-5.212,3.19-7.037c1.248-1.8,2.66-3.471,4.351-4.823
			c1.691-1.395,5.59-3.324,3.871-1.334c-1.667,2.015-1.992,3.138-3.958,5.447c-0.971,1.163-2.065,2.541-2.836,3.677
			C248.531,204.263,248.05,205.135,248.047,205.135z" style="opacity: 1;"></path>
		<path class="st5" d="M313.368,117.384c8.309-3.003,15.398-5.04,23.202-7.236c7.811-2.188,16.357-4.472,27.738-7.738
			l23.216-6.53c2.688-0.8,5.108-1.527,7.734-2.621c0.327-0.139,0.658-0.283,0.995-0.442l0.945-0.451
			c0.595-0.27,1.229-0.516,1.897-0.724c1.338-0.419,2.836-0.703,4.501-0.721c3.345,0.002,5.541,1.02,6.968,2.071
			c1.424,1.091,2.195,2.277,2.57,3.682c0.346,1.406,0.303,3.122-0.779,5.364c-1.083,2.228-3.266,4.927-7.218,7.869
			c-4.119,3.085-6.219,4.506-7.184,5.167c-0.97,0.654-0.812,0.566-0.493,0.393c0.318-0.172,0.794-0.438,0.459-0.128
			c-0.336,0.277-1.469,1.265-4.462,3.062c-1.499,0.874-2.884,1.541-4.162,1.959c-1.279,0.425-2.48,0.609-3.679,0.694
			c-2.403,0.139-4.614,0.063-6.292,0.157c-3.397,0.155-4.896,0.544-4.895,0.533c2.494,0.469,4.926,1.08,7.353,1.716
			c1.217,0.312,2.441,0.63,3.74,0.849c1.294,0.222,2.685,0.327,4.099,0.216c2.997-0.798,5.494-2.33,7.802-3.882
			c2.311-1.579,4.472-3.271,6.602-4.991l3.158-2.606c1.059-0.872,2.126-1.823,3.11-2.828c1.973-2.015,3.781-4.303,4.914-7.038
			c-0.004-0.002,0.225-0.447,0.523-1.316c0.287-0.867,0.661-2.186,0.612-3.9c-0.036-1.696-0.635-3.803-2.061-5.573
			c-1.405-1.781-3.516-3.155-5.869-3.911c-2.358-0.768-4.968-0.952-7.487-0.588c-1.26,0.179-2.5,0.496-3.684,0.923
			c-0.591,0.216-1.169,0.458-1.729,0.726l-0.749,0.361l-0.716,0.323c-3.897,1.633-7.834,2.699-10.629,3.532
			c-5.638,1.637-12.844,3.284-19.697,4.862c-6.854,1.57-13.36,3.093-17.657,4.264c-4.3,1.17-10.655,3.29-17.651,5.816
			c-7.004,2.52-14.633,5.466-21.556,8.161c-6.932,2.711-9.338,4.632-8.047,4.8C300.113,121.865,305.077,120.401,313.368,117.384z" style="opacity: 1;"></path>
		<path style="fill-rule:evenodd;clip-rule:evenodd;fill:#231815;" d="M267.587,198.611c-2.259-8.558,6.935-13.319,12.754-8.291
			C286.161,195.348,272.389,197.171,267.587,198.611"></path>
		<path style="fill-rule:evenodd;clip-rule:evenodd;fill:#231815;" d="M292.367,215.359c-5.952-0.89-10.346,7.462-3.695,10.583
			c8.703,4.088,9.585,0.762,10.245-1.73C299.576,221.717,300.068,216.512,292.367,215.359z"></path>
		<path class="st5" d="M292.295,261.32c-0.173,0.48-0.264,0.764-0.361,0.98c-0.093,0.216-0.225,0.39-0.328,0.599
			c-0.047,0.099-0.231,0.389-0.356,0.945c-0.132,0.544-0.184,1.334-0.104,2.161c0.141,1.662,0.78,3.376,1.201,3.701
			c0.853,0.653,0.936,1.827,2.404,3.457c1.019,1.143,1.437,3.922,1.463,3.933c-0.28,0.239-1.237-0.177-2.183-0.844
			c-0.95-0.659-1.874-1.577-2.149-2.121c-0.578-1.069-1.509-3.062-1.746-3.805c-0.131-0.364-0.688-1.575-1.11-2.858
			c-0.444-1.268-0.667-2.654-0.776-2.974c-0.122-0.312-0.236-0.864-0.215-1.601c0.023-0.729,0.191-1.681,0.74-2.617
			c0.559-0.951,1.468-1.252,2.066-1.159c0.626,0.089,1.042,0.48,1.305,0.835c0.259,0.357,0.252,0.71,0.23,0.959
			C292.349,261.158,292.296,261.32,292.295,261.32z" style="opacity: 1;"></path>
		<path class="st5" d="M310.694,258.635c1.005,0.608,1.362,1.538,1.681,2.244c0.142,0.346,0.823,2.044,1.831,3.666
			c0.986,1.626,2.223,3.165,2.763,3.388c1.081,0.441,1.586,1.611,3.551,3.026c1.406,1.009,2.46,3.912,2.459,3.917
			c-0.488,0.547-4.22-1.367-5.06-2.343c-0.844-0.957-2.378-2.686-2.867-3.335c-0.253-0.317-1.208-1.337-2.126-2.381
			c-0.923-1.034-1.786-2.114-2.049-2.303c-0.53-0.373-1.48-1.531-2.307-2.845c-0.829-1.346,0.04-2.415,0.739-2.938
			C310.012,258.205,310.695,258.645,310.694,258.635z" style="opacity: 1;"></path>
		<path class="st5" d="M325.266,255.595c1.036,0.708,1.422,1.738,1.777,2.495c0.16,0.375,0.918,2.199,2.168,3.814
			c1.22,1.633,2.855,3.006,3.458,3.13c1.2,0.253,2.019,1.34,4.45,2.241c1.717,0.634,3.863,3.122,3.876,3.127
			c-0.132,0.341-1.323,0.337-2.638,0.121c-1.311-0.207-2.75-0.653-3.344-1.042c-1.209-0.747-3.316-2.228-3.99-2.839
			c-0.344-0.292-1.609-1.211-2.757-2.262c-1.168-1.028-2.192-2.195-2.487-2.404c-0.59-0.4-1.694-1.687-2.575-3.161
			c-0.897-1.494-0.016-2.606,0.669-3.158C324.564,255.099,325.267,255.602,325.266,255.595z" style="opacity: 1;"></path>
		<path class="st5" d="M311.425,205.687c-3.356-1.68-8.652-3.93-13.991-5.588c-5.341-1.709-10.701-2.7-14.085-3.164
			c-3.386-0.5-6.249-0.404-8.713,0.05c-1.235,0.232-2.373,0.548-3.439,0.945c-1.109,0.417-2.244,0.883-3.322,1.348
			c-1.087,0.469-2.352,1.085-3.651,1.833c-0.647,0.375-1.306,0.784-1.904,1.224c-0.719,0.528-0.794,0.653-1.009,0.968
			c-0.085,0.146-0.143,0.316-0.126,0.489l0.052,0.256l0.013,0.061l0.001,0.085l-0.022,0.326c-0.041,0.465-0.234,1.06-0.511,1.498
			c-0.274,0.444-0.577,0.741-0.825,0.957l-0.343,0.273l-0.195,0.125l-0.342,0.277c-0.206,0.218-0.213,0.568-0.081,0.825
			c0.122,0.265,0.301,0.481,0.476,0.679l0.134,0.157l0.343,0.373l0.623,0.681c0.387,0.427,0.692,0.797,0.911,1.112
			c0.436,0.633,0.526,1.064,0.331,1.314c-0.377,0.501-1.899,0.299-3.483-0.669c-0.772-0.488-1.704-1.126-2.59-2.15
			c-0.428-0.507-0.823-1.107-1.034-1.788c-0.218-0.677-0.178-1.46,0.164-2.087c0.332-0.631,0.867-1.111,1.453-1.496l0.921-0.562
			c0.201-0.115,0.184-0.135,0.19-0.155c0.181,0.18,0.358,0.242,0.262,0.204c-0.045-0.013-0.144-0.035-0.371-0.044l-0.036-0.233
			c-0.022-0.172-0.045-0.339-0.056-0.502c-0.028-0.33-0.007-0.651,0.067-0.951c0.149-0.598,0.468-1.074,0.781-1.441
			c0.299-0.364,0.889-0.916,1.601-1.413c0.651-0.465,1.443-0.945,2.334-1.424c1.779-0.962,3.948-1.93,6.119-2.82l1.624-0.653
			c0.559-0.219,1.117-0.416,1.668-0.589c1.097-0.347,2.158-0.607,3.113-0.8c1.916-0.379,3.41-0.501,4.038-0.551
			c1.251-0.122,4.871-0.436,8.633-0.162c3.762,0.224,7.62,0.941,9.426,1.424c1.818,0.473,4.1,1.527,6.474,2.455
			c2.383,0.927,4.865,1.723,7.304,1.602c2.447-0.113,3.548,0.229,4.102,0.9c0.551,0.679,0.577,1.706,0.892,3.107
			c0.156,0.703,0.206,1.409,0.12,2.029c-0.079,0.624-0.344,1.134-0.651,1.528C314.235,206.363,313.236,206.592,311.425,205.687z" style="opacity: 1;"></path>
		<path class="st5" d="M336.603,237.294c5.59,1.625,11.495,5.059,17.494,9.109c6.007,4.059,12.171,8.763,18.366,13.211
			c6.186,4.459,12.422,8.651,18.328,11.827c2.947,1.593,5.807,2.931,8.483,3.98c2.692,1.065,5.134,1.792,7.413,2.361
			c7.365,1.892,13.999,2.387,19.668,1.351c2.824-0.519,5.394-1.43,7.589-2.722c1.097-0.647,2.099-1.387,2.974-2.21
			c0.22-0.203,0.429-0.416,0.633-0.631c0.194-0.203,0.431-0.482,0.488-0.553c0.179-0.24,0.416-0.485,0.48-0.765
			c-0.08-0.255-0.166-0.506-0.256-0.757c-0.155-0.423-0.381-1.014-0.579-1.51c-0.412-1.035-0.854-2.06-1.317-3.075
			c-2.574-5.65-7.074-13.105-13.536-19.787c-3.22-3.342-6.91-6.47-10.905-9.127c-3.991-2.661-8.28-4.838-12.576-6.471
			c-4.3-1.626-7.369-2.437-9.308-3.046c-1.946-0.591-2.775-0.959-2.729-1.232c0.073-0.516,3.704-0.638,8.391,0.436
			c2.334,0.532,5.128,1.352,8.047,2.507c2.921,1.149,5.963,2.641,8.818,4.364c5.738,3.422,10.585,7.846,13.293,10.854
			c1.453,1.586,4.466,5.04,7.553,9.783c1.545,2.366,3.111,5.048,4.548,7.92c0.72,1.435,1.411,2.916,2.05,4.431
			c0.32,0.757,0.629,1.521,0.92,2.292l0.484,1.325c0.173,0.493,0.327,0.986,0.48,1.483c-0.286,0.811-0.856,1.566-1.413,2.271
			c-0.545,0.663-1.017,1.144-1.568,1.662c-1.081,1-2.249,1.849-3.447,2.558c-2.396,1.418-4.874,2.29-7.117,2.846
			c-4.512,1.082-8.058,1.011-9.58,1.016c-3.27,0.016-12.672-0.533-21.945-3.994c-9.218-3.41-17.742-8.965-21.737-11.64
			c-4.009-2.7-9.02-6.727-14.292-10.667c-5.264-3.928-10.915-7.75-16.105-9.679c-5.17-1.911-7.566-2.574-9.173-3.443
			c-1.623-0.807-2.425-1.846-4.593-2.954c-2.156-1.076-4.095-1.71-3.823-2.637c0.145-0.447,0.894-0.991,2.487-1.294
			C331.168,236.394,333.602,236.412,336.603,237.294z" style="opacity: 1;"></path>
		<path class="st5" d="M319.99,203.059c2.453-3.255,7.156-6.698,11.355-9.041c4.193-2.37,7.801-3.71,7.794-3.711
			c0,0.003,2.828-1.197,6.637-2.475c3.805-1.291,8.609-2.575,12.353-3.257c3.737-0.708,7.854-1.397,11.812-1.851
			c3.956-0.465,7.747-0.688,10.782-0.728c1.517-0.018,4.554-0.035,8.407,0.283c3.845,0.309,8.503,0.979,13.193,2.143
			c4.693,1.15,9.4,2.804,13.428,4.636c4.033,1.817,7.388,3.788,9.607,5.231c1.935,1.254,4.524,3.039,7.263,5.328
			c1.369,1.142,2.78,2.408,4.164,3.781c0.694,0.685,1.384,1.395,2.059,2.129l2.018,2.175c2.682,2.978,5.3,6.135,6.857,9.691
			c0.376,0.892,0.674,1.822,0.803,2.795c0.129,0.968,0.068,2.012-0.324,2.952c-0.385,0.948-1.093,1.695-1.828,2.163
			c-0.766,0.476-1.458,0.732-2.289,0.872l0.19-0.044c-1.479,0.454-2.635,0.717-3.49,0.911c-5.54,1.195-10.219,1.699-14.081,2.027
			c-3.867,0.31-6.923,0.402-9.275,0.448c-4.707,0.061-6.601,0-6.601,0.014c0.002-0.007-5.283-0.141-11.635-0.999
			c-6.36-0.805-13.729-2.477-18.047-3.79c-2.16-0.633-4.496-1.435-6.799-2.266c-2.315-0.814-4.683-1.611-6.984-2.311
			c-4.602-1.406-8.947-2.393-11.912-2.678c-2.961-0.281-4.019-0.528-5.446-0.898c-0.715-0.176-1.518-0.375-2.705-0.551
			c-1.182-0.173-2.749-0.339-4.966-0.295c-2.218,0.05-4.428,0.195-6.375,0.504c-1.951,0.301-3.636,0.791-4.826,1.294
			c-1.188,0.472-1.933,1.049-2.019,0.829c-0.107-0.205,0.553-1.345,2.413-2.419c1.866-1.099,4.551-1.881,7.419-2.209
			c2.873-0.343,5.93-0.278,8.694-0.031c5.535,0.507,9.922,1.653,9.924,1.628c6.508,0.984,12.913,2.53,19.213,4.329
			c0.003-0.007,1.534,1.071,4.227,2.284c2.688,1.211,6.564,2.54,11.046,2.976c4.472,0.458,11.065,1.299,17.506,1.56
			c6.439,0.31,12.691,0.04,16.336-0.461c2.589-0.344,5.344-0.788,8.241-1.363c1.447-0.29,2.932-0.613,4.443-0.977
			c0.753-0.184,1.514-0.377,2.276-0.584c0.743-0.204,1.569-0.44,2.212-0.656l0.263-0.087l0.264-0.032l-0.024,0.004l-0.013,0.002
			h-0.007l-0.003,0.002c0.241,1.546,0.063,0.4,0.115,0.732l-0.113-0.681l-0.001-0.055l0.038-0.009l0.104-0.03l0.224-0.084
			l0.368-0.201c0.194-0.148,0.251-0.234,0.309-0.371c0.058-0.136,0.111-0.404,0.077-0.811c-0.033-0.405-0.149-0.919-0.34-1.467
			c-0.674-1.917-2.083-4.069-3.662-6.107c-0.796-1.025-1.652-2.042-2.544-3.046l-2.767-3.054
			c-3.648-3.916-7.858-7.325-12.094-10.039c-4.217-2.747-9.816-5.368-15.155-7.06c-5.328-1.732-10.331-2.594-13.177-3.041
			c-1.423-0.224-4.284-0.645-7.897-0.862c-3.608-0.225-7.966-0.216-12.307,0.154c-4.344,0.357-8.658,1.071-12.212,1.865
			c-3.558,0.785-6.359,1.62-7.754,2.047c-2.803,0.833-7.842,3.16-11.958,5.591c-4.136,2.399-7.391,4.791-7.395,4.784
			c0.001,0.005-0.527-0.294-2.36,0.09c-1.823,0.4-5,1.45-10.025,4.553c-2.498,1.564-3.911,2.269-4.665,2.382
			c-0.751,0.116-0.833-0.35-0.599-1.027C318.209,205.229,319.986,203.055,319.99,203.059z" style="opacity: 1;"></path>
		<path class="st5" d="M187.079,216.994c9.008-1.765,13.316-7.651,12.899-10.304c-0.218-1.32,1.866-4.126,4.654-7.556
			c2.786-3.435,6.285-7.462,8.832-11.405c5.13-7.916,10.94-10.155,12.391-12.581c0.746-1.219,2.426-3.153,4.205-4.989
			c1.775-1.838,3.643-3.587,4.667-4.531c2.014-1.922,7.218-7.279,7.239-7.264c0,0,1.315-1.326,3.016-2.931
			c1.705-1.6,3.807-3.46,5.289-4.599c1.48-1.139,5.061-4.261,9.686-7.79c4.618-3.535,10.311-7.435,15.677-10.378
			c6.033-3.309,9.694-5.227,12.307-6.729c2.622-1.485,4.208-2.532,6.258-3.749c2.578-1.529,3.847-2.766,3.148-3.082
			c-0.686-0.298-3.374,0.29-8.527,2.759c-5.148,2.477-9.214,4.463-12.627,6.175c-3.411,1.714-6.165,3.158-8.608,4.651
			c-4.878,3.01-7.54,4.761-12.246,8.031c-2.338,1.654-3.628,2.586-5.285,3.825c-1.658,1.238-3.704,2.754-7.418,5.75
			c-4.5,3.671-4.283,3.817-6.74,6.784c-2.42,2.997-4.283,3.777-7.968,8.168c-3.641,4.407-5.399,5.311-8.033,8.042
			c-1.309,1.37-2.16,2.195-3.483,3.55c-1.323,1.357-3.129,3.238-6.232,6.813c-6.199,7.17-10.306,13.562-13.15,17.316
			c-2.844,3.767-4.526,7.197-6.69,9.122C188.163,212.026,187.071,217,187.079,216.994z" style="opacity: 1;"></path>
		<path class="st5" d="M390.052,493.927c0.104-0.146,0.167-0.391,0.017-0.599c-0.05-0.065-0.014-0.043-0.248-0.268
			c-0.205-0.184-0.464-0.39-0.762-0.596c-0.599-0.415-1.348-0.833-2.146-1.227c-3.243-1.573-7.057-2.795-9.351-3.805
			c-4.66-1.993-7.997-2.75-11.306-3.581c-1.66-0.414-3.986-0.807-6.549-1.354c-2.564-0.562-5.361-1.233-7.994-2.503
			c-1.314-0.64-2.191-1.391-2.643-2.023c-0.454-0.641-0.479-1.112-0.251-1.325c0.227-0.227,0.684-0.241,1.222-0.194
			c0.543,0.047,1.169,0.159,1.816,0.328c2.568,0.728,7.122,1.37,9.156,1.939c1.979,0.642,12.708,3.212,14.373,3.648
			c0.829,0.209,3.25,0.631,5.788,1.176c2.53,0.533,5.184,1.261,6.428,1.774c1.243,0.504,2.753,1.542,4.328,2.675l1.201,0.894
			c0.396,0.307,0.827,0.647,1.285,1.069c0.89,0.813,1.689,1.777,2.353,2.909c0.664,1.144,0.753,2.244,0.633,3.037
			c-0.128,0.808-0.466,1.344-0.863,1.672c-0.207,0.177-0.422,0.277-0.633,0.318c-0.218,0.058-0.455,0.078-0.709,0.076
			c-0.504,0.003-1.077-0.073-1.722-0.155c-1.298-0.17-2.455-0.833-3.093-1.599C389.717,495.451,389.649,494.538,390.052,493.927z" style="opacity: 1;"></path>
	</g>
</g>
</svg>
